<?xml version="1.0" encoding="UTF-8"?>
<!DOCTYPE svg PUBLIC "-//W3C//DTD SVG 1.1//EN" "http://www.w3.org/Graphics/SVG/1.1/DTD/svg11.dtd">
<svg xmlns="http://www.w3.org/2000/svg" version="1.1" width="64px" height="64px" style="shape-rendering:geometricPrecision; text-rendering:geometricPrecision; image-rendering:optimizeQuality; fill-rule:evenodd; clip-rule:evenodd" xmlns:xlink="http://www.w3.org/1999/xlink">
<g><path style="opacity:0.985" fill="#324389" d="M 12.5,-0.5 C 21.1667,-0.5 29.8333,-0.5 38.5,-0.5C 39.6005,0.60486 40.2671,1.93819 40.5,3.5C 40.5,6.5 40.5,9.5 40.5,12.5C 40.6665,24.1714 40.4999,35.8381 40,47.5C 39.1667,48.3333 38.3333,49.1667 37.5,50C 32.1771,50.4994 26.8437,50.666 21.5,50.5C 13.5839,52.3997 9.91718,49.3997 10.5,41.5C 11.391,42.1098 12.391,42.4431 13.5,42.5C 13.5,44.1667 13.5,45.8333 13.5,47.5C 21.5,47.5 29.5,47.5 37.5,47.5C 37.5,32.5 37.5,17.5 37.5,2.5C 32.2457,3.68314 26.9123,4.34981 21.5,4.5C 19.1799,2.77386 16.5133,2.1072 13.5,2.5C 13.5,8.83333 13.5,15.1667 13.5,21.5C 12.5041,21.5858 11.6708,21.2524 11,20.5C 10.7515,17.0806 10.2515,13.7473 9.5,10.5C 9.99796,6.73006 10.998,3.0634 12.5,-0.5 Z"/></g>
<g><path style="opacity:1" fill="#50a9f4" d="M 21.5,4.5 C 21.5,5.5 21.5,6.5 21.5,7.5C 20.0222,7.23798 18.6888,7.57131 17.5,8.5C 19.0792,9.66686 20.4125,11.0002 21.5,12.5C 16.7607,11.4071 14.7607,13.2404 15.5,18C 15.5445,19.7642 15.8778,21.4309 16.5,23C 18.4727,23.4955 20.4727,23.6621 22.5,23.5C 22.5,23.8333 22.5,24.1667 22.5,24.5C 20.1667,24.5 17.8333,24.5 15.5,24.5C 14.8333,23.5 14.1667,22.5 13.5,21.5C 13.5,15.1667 13.5,8.83333 13.5,2.5C 16.5133,2.1072 19.1799,2.77386 21.5,4.5 Z"/></g>
<g><path style="opacity:1" fill="#74bff6" d="M 13.5,42.5 C 14.1667,42.5 14.8333,42.5 15.5,42.5C 15.5,43.8333 15.5,45.1667 15.5,46.5C 21.8421,46.6662 28.1754,46.4995 34.5,46C 35.4505,42.9433 35.7839,39.7766 35.5,36.5C 28.4122,36.2045 21.4122,36.5379 14.5,37.5C 13.5092,35.8773 14.1759,34.8773 16.5,34.5C 18.5,34.5 20.5,34.5 22.5,34.5C 26.8333,34.5 31.1667,34.5 35.5,34.5C 35.5,31.1667 35.5,27.8333 35.5,24.5C 31.1667,24.5 26.8333,24.5 22.5,24.5C 22.5,24.1667 22.5,23.8333 22.5,23.5C 26.5138,23.6655 30.5138,23.4988 34.5,23C 35.8333,19.6667 35.8333,16.3333 34.5,13C 30.1794,12.501 25.8461,12.3343 21.5,12.5C 20.4125,11.0002 19.0792,9.66686 17.5,8.5C 18.6888,7.57131 20.0222,7.23798 21.5,7.5C 21.5,6.5 21.5,5.5 21.5,4.5C 26.9123,4.34981 32.2457,3.68314 37.5,2.5C 37.5,17.5 37.5,32.5 37.5,47.5C 29.5,47.5 21.5,47.5 13.5,47.5C 13.5,45.8333 13.5,44.1667 13.5,42.5 Z"/></g>
<g><path style="opacity:0.972" fill="#826ae1" d="M 40.5,3.5 C 45.4501,4.30496 49.4501,6.63829 52.5,10.5C 51.001,12.1643 50.001,14.1643 49.5,16.5C 53.6813,24.9987 55.5146,33.9987 55,43.5C 56.2708,44.8825 57.7708,45.8825 59.5,46.5C 57.9748,49.563 55.9748,52.2297 53.5,54.5C 51.9748,51.9209 50.6414,49.2542 49.5,46.5C 50.3354,38.7944 49.1688,31.4611 46,24.5C 45.6667,20.8333 45.3333,17.1667 45,13.5C 43.6439,12.6198 42.1439,12.2865 40.5,12.5C 40.5,9.5 40.5,6.5 40.5,3.5 Z"/></g>
<g><path style="opacity:1" fill="#e8eeff" d="M 22.5,7.5 C 25.8984,7.17964 29.2317,7.51298 32.5,8.5C 30.8333,8.83333 29.1667,9.16667 27.5,9.5C 25.3603,9.44392 23.6936,8.77725 22.5,7.5 Z"/></g>
<g><path style="opacity:1" fill="#907ff0" d="M 52.5,10.5 C 61.0348,18.2721 64.2014,27.9388 62,39.5C 61.6207,42.0301 60.7874,44.3635 59.5,46.5C 57.7708,45.8825 56.2708,44.8825 55,43.5C 55.5146,33.9987 53.6813,24.9987 49.5,16.5C 50.001,14.1643 51.001,12.1643 52.5,10.5 Z"/></g>
<g><path style="opacity:1" fill="#f5b791" d="M 40.5,12.5 C 42.1439,12.2865 43.6439,12.6198 45,13.5C 45.3333,17.1667 45.6667,20.8333 46,24.5C 49.1688,31.4611 50.3354,38.7944 49.5,46.5C 46.6542,54.4324 40.9876,58.7658 32.5,59.5C 29.5279,57.6778 26.5279,55.8445 23.5,54C 22.1772,53.1841 21.5106,52.0174 21.5,50.5C 26.8437,50.666 32.1771,50.4994 37.5,50C 38.3333,49.1667 39.1667,48.3333 40,47.5C 40.4999,35.8381 40.6665,24.1714 40.5,12.5 Z"/></g>
<g><path style="opacity:1" fill="#d0ddfb" d="M 21.5,12.5 C 25.8461,12.3343 30.1794,12.501 34.5,13C 35.8333,16.3333 35.8333,19.6667 34.5,23C 30.5138,23.4988 26.5138,23.6655 22.5,23.5C 20.4727,23.6621 18.4727,23.4955 16.5,23C 15.8778,21.4309 15.5445,19.7642 15.5,18C 14.7607,13.2404 16.7607,11.4071 21.5,12.5 Z"/></g>
<g><path style="opacity:0.958" fill="#836ae1" d="M 5.5,15.5 C 6.9616,16.4577 8.29493,17.6244 9.5,19C 5.62355,21.1276 5.62355,23.4609 9.5,26C 5.62355,28.1276 5.62355,30.4609 9.5,33C 7.81978,33.3468 6.81978,34.3468 6.5,36C 7.65019,37.981 8.98352,39.8143 10.5,41.5C 9.91718,49.3997 13.5839,52.3997 21.5,50.5C 21.5106,52.0174 22.1772,53.1841 23.5,54C 26.5279,55.8445 29.5279,57.6778 32.5,59.5C 33.6737,60.5137 34.3404,61.847 34.5,63.5C 30.8333,63.5 27.1667,63.5 23.5,63.5C 6.39757,57.1908 -1.10243,44.8574 1,26.5C 1.97467,22.5597 3.47467,18.893 5.5,15.5 Z"/></g>
<g><path style="opacity:1" fill="#6379b5" d="M 19.5,15.5 C 21.604,15.2011 23.604,15.5344 25.5,16.5C 24.5,16.8333 23.5,17.1667 22.5,17.5C 20.9704,17.3601 19.9704,16.6935 19.5,15.5 Z"/></g>
<g><path style="opacity:1" fill="#f4b183" d="M 9.5,10.5 C 10.2515,13.7473 10.7515,17.0806 11,20.5C 11.6708,21.2524 12.5041,21.5858 13.5,21.5C 14.1667,22.5 14.8333,23.5 15.5,24.5C 16.9516,26.7742 16.285,28.2742 13.5,29C 15.1742,30.5059 16.1742,32.3393 16.5,34.5C 14.1759,34.8773 13.5092,35.8773 14.5,37.5C 16.5992,38.8149 16.9326,40.4816 15.5,42.5C 14.8333,42.5 14.1667,42.5 13.5,42.5C 12.391,42.4431 11.391,42.1098 10.5,41.5C 8.98352,39.8143 7.65019,37.981 6.5,36C 6.81978,34.3468 7.81978,33.3468 9.5,33C 5.62355,30.4609 5.62355,28.1276 9.5,26C 5.62355,23.4609 5.62355,21.1276 9.5,19C 8.29493,17.6244 6.9616,16.4577 5.5,15.5C 4.75635,12.0504 6.08968,10.3838 9.5,10.5 Z"/></g>
<g><path style="opacity:1" fill="#bfcaf0" d="M 15.5,24.5 C 17.8333,24.5 20.1667,24.5 22.5,24.5C 22.3893,25.1174 22.056,25.6174 21.5,26C 26.7298,26.9086 26.7298,28.0753 21.5,29.5C 34.785,30.9855 34.785,32.1521 21.5,33C 22.056,33.3826 22.3893,33.8826 22.5,34.5C 20.5,34.5 18.5,34.5 16.5,34.5C 16.1742,32.3393 15.1742,30.5059 13.5,29C 16.285,28.2742 16.9516,26.7742 15.5,24.5 Z"/></g>
<g><path style="opacity:1" fill="#e3eafd" d="M 22.5,24.5 C 26.8333,24.5 31.1667,24.5 35.5,24.5C 35.5,27.8333 35.5,31.1667 35.5,34.5C 31.1667,34.5 26.8333,34.5 22.5,34.5C 22.3893,33.8826 22.056,33.3826 21.5,33C 34.785,32.1521 34.785,30.9855 21.5,29.5C 26.7298,28.0753 26.7298,26.9086 21.5,26C 22.056,25.6174 22.3893,25.1174 22.5,24.5 Z"/></g>
<g><path style="opacity:1" fill="#dde5fc" d="M 15.5,42.5 C 16.9326,40.4816 16.5992,38.8149 14.5,37.5C 21.4122,36.5379 28.4122,36.2045 35.5,36.5C 35.7839,39.7766 35.4505,42.9433 34.5,46C 28.1754,46.4995 21.8421,46.6662 15.5,46.5C 15.5,45.1667 15.5,43.8333 15.5,42.5 Z"/></g>
<g><path style="opacity:1" fill="#4963a7" d="M 19.5,38.5 C 21.604,38.2011 23.604,38.5344 25.5,39.5C 24.5,39.8333 23.5,40.1667 22.5,40.5C 20.9704,40.3601 19.9704,39.6935 19.5,38.5 Z"/></g>
<g><path style="opacity:1" fill="#fb9b62" d="M 49.5,46.5 C 50.6414,49.2542 51.9748,51.9209 53.5,54.5C 49.7857,59.0213 45.1191,62.0213 39.5,63.5C 37.8333,63.5 36.1667,63.5 34.5,63.5C 34.3404,61.847 33.6737,60.5137 32.5,59.5C 40.9876,58.7658 46.6542,54.4324 49.5,46.5 Z"/></g>
</svg>
