<?xml version="1.0" encoding="UTF-8"?>
<!DOCTYPE svg PUBLIC "-//W3C//DTD SVG 1.1//EN" "http://www.w3.org/Graphics/SVG/1.1/DTD/svg11.dtd">
<svg xmlns="http://www.w3.org/2000/svg" version="1.1" width="64px" height="64px" style="shape-rendering:geometricPrecision; text-rendering:geometricPrecision; image-rendering:optimizeQuality; fill-rule:evenodd; clip-rule:evenodd" xmlns:xlink="http://www.w3.org/1999/xlink">
<g><path style="opacity:0.981" fill="#030608" d="M 3.5,1.5 C 20.17,1.3334 36.8367,1.50007 53.5,2C 55.1554,3.44425 55.822,5.27759 55.5,7.5C 57.7224,7.17798 59.5557,7.84464 61,9.5C 61.6667,26.1667 61.6667,42.8333 61,59.5C 60.5,60 60,60.5 59.5,61C 42.8333,61.6667 26.1667,61.6667 9.5,61C 7.84464,59.5557 7.17798,57.7224 7.5,55.5C 5.27759,55.822 3.44425,55.1554 2,53.5C 1.33333,36.8333 1.33333,20.1667 2,3.5C 2.71719,2.9558 3.21719,2.28913 3.5,1.5 Z"/></g>
<g><path style="opacity:1" fill="#fd4f22" d="M 4.5,3.5 C 20.5035,3.33341 36.5035,3.50007 52.5,4C 53.4061,5.69946 53.7394,7.5328 53.5,9.5C 36.8333,9.5 20.1667,9.5 3.5,9.5C 3.32526,7.3792 3.65859,5.3792 4.5,3.5 Z"/></g>
<g><path style="opacity:1" fill="#000000" d="M 7.5,5.5 C 9.33702,5.63945 9.67036,6.30612 8.5,7.5C 7.70245,7.04311 7.36912,6.37644 7.5,5.5 Z"/></g>
<g><path style="opacity:1" fill="#000000" d="M 11.5,5.5 C 13.337,5.63945 13.6704,6.30612 12.5,7.5C 11.7025,7.04311 11.3691,6.37644 11.5,5.5 Z"/></g>
<g><path style="opacity:1" fill="#000000" d="M 15.5,5.5 C 17.337,5.63945 17.6704,6.30612 16.5,7.5C 15.7025,7.04311 15.3691,6.37644 15.5,5.5 Z"/></g>
<g><path style="opacity:1" fill="#ef4421" d="M 55.5,9.5 C 59.0681,9.75934 60.4015,11.7593 59.5,15.5C 58.1667,15.5 56.8333,15.5 55.5,15.5C 55.5,13.5 55.5,11.5 55.5,9.5 Z"/></g>
<g><path style="opacity:1" fill="#58a8e5" d="M 3.5,11.5 C 20.1667,11.5 36.8333,11.5 53.5,11.5C 53.665,14.8499 53.4983,18.1832 53,21.5C 47.6667,26.8333 42.3333,32.1667 37,37.5C 34.6463,41.3687 33.4796,45.3687 33.5,49.5C 37.1667,48 40.8333,46.5 44.5,45C 47.3333,42.1667 50.1667,39.3333 53,36.5C 53.6667,41.8333 53.6667,47.1667 53,52.5C 44.909,53.1594 36.7424,53.4927 28.5,53.5C 20.2576,53.4927 12.091,53.1594 4,52.5C 3.5001,38.8374 3.33343,25.1707 3.5,11.5 Z"/></g>
<g><path style="opacity:1" fill="#010203" d="M 7.5,15.5 C 13.5,15.5 19.5,15.5 25.5,15.5C 25.5,19.5 25.5,23.5 25.5,27.5C 19.5,27.5 13.5,27.5 7.5,27.5C 7.5,23.5 7.5,19.5 7.5,15.5 Z"/></g>
<g><path style="opacity:1" fill="#000000" d="M 29.5,16.5 C 31.337,16.6395 31.6704,17.3061 30.5,18.5C 29.7025,18.0431 29.3691,17.3764 29.5,16.5 Z"/></g>
<g><path style="opacity:1" fill="#000000" d="M 33.5,16.5 C 38.8746,16.1718 44.2079,16.5052 49.5,17.5C 46.8333,17.8333 44.1667,18.1667 41.5,18.5C 38.4098,18.4783 35.7432,17.8117 33.5,16.5 Z"/></g>
<g><path style="opacity:1" fill="#fea732" d="M 9.5,17.5 C 14.1667,17.5 18.8333,17.5 23.5,17.5C 23.5,20.1667 23.5,22.8333 23.5,25.5C 18.8333,25.5 14.1667,25.5 9.5,25.5C 9.5,22.8333 9.5,20.1667 9.5,17.5 Z"/></g>
<g><path style="opacity:1" fill="#54a3e1" d="M 55.5,17.5 C 56.8333,17.5 58.1667,17.5 59.5,17.5C 59.6633,19.8568 59.4966,22.1902 59,24.5C 56.259,22.9326 55.0923,20.5993 55.5,17.5 Z"/></g>
<g><path style="opacity:1" fill="#000000" d="M 29.5,20.5 C 35.5368,20.1707 41.5368,20.5041 47.5,21.5C 44.5,21.8333 41.5,22.1667 38.5,22.5C 35.0866,22.483 32.0866,21.8164 29.5,20.5 Z"/></g>
<g><path style="opacity:1" fill="#000000" d="M 29.5,24.5 C 34.2137,24.1734 38.8804,24.5067 43.5,25.5C 41.1667,25.8333 38.8333,26.1667 36.5,26.5C 33.7305,26.4714 31.3972,25.8048 29.5,24.5 Z"/></g>
<g><path style="opacity:1" fill="#b9bbbc" d="M 53.5,23.5 C 56.7864,24.2419 58.1197,26.0753 57.5,29C 53.2662,29.267 51.9329,27.4336 53.5,23.5 Z"/></g>
<g><path style="opacity:1" fill="#000000" d="M 7.5,31.5 C 9.33702,31.6395 9.67036,32.3061 8.5,33.5C 7.70245,33.0431 7.36912,32.3764 7.5,31.5 Z"/></g>
<g><path style="opacity:1" fill="#000000" d="M 11.5,31.5 C 20.1922,31.1686 28.8589,31.502 37.5,32.5C 33.1667,32.8333 28.8333,33.1667 24.5,33.5C 19.7784,33.4921 15.4451,32.8255 11.5,31.5 Z"/></g>
<g><path style="opacity:1" fill="#53a4e3" d="M 58.5,30.5 C 59.8284,39.9018 59.8284,49.4018 58.5,59C 42.5,59.6667 26.5,59.6667 10.5,59C 9.66337,57.9887 9.33003,56.8221 9.5,55.5C 23.8372,55.6666 38.1705,55.4999 52.5,55C 53.3333,54.1667 54.1667,53.3333 55,52.5C 55.3333,46.1667 55.6667,39.8333 56,33.5C 57.045,32.6266 57.8783,31.6266 58.5,30.5 Z"/></g>
<g><path style="opacity:1" fill="#009e8a" d="M 52.5,30.5 C 54.0281,30.5173 54.5281,31.184 54,32.5C 50.3182,36.349 46.4849,40.0156 42.5,43.5C 41.479,42.9984 41.3123,42.3317 42,41.5C 45.7039,37.9643 49.2039,34.2976 52.5,30.5 Z"/></g>
<g><path style="opacity:1" fill="#000000" d="M 7.5,35.5 C 16.1922,35.1686 24.8589,35.502 33.5,36.5C 29.1667,36.8333 24.8333,37.1667 20.5,37.5C 15.7784,37.4921 11.4451,36.8255 7.5,35.5 Z"/></g>
<g><path style="opacity:1" fill="#00b7a0" d="M 49.5,27.5 C 51.0281,27.5173 51.5281,28.184 51,29.5C 47.3333,33.1667 43.6667,36.8333 40,40.5C 39.5,40 39,39.5 38.5,39C 42.3705,35.2977 46.0371,31.4643 49.5,27.5 Z"/></g>
<g><path style="opacity:1" fill="#000000" d="M 7.5,39.5 C 14.8635,39.1694 22.1968,39.5027 29.5,40.5C 25.8333,40.8333 22.1667,41.1667 18.5,41.5C 14.4348,41.4888 10.7681,40.8222 7.5,39.5 Z"/></g>
<g><path style="opacity:1" fill="#000000" d="M 7.5,43.5 C 14.8635,43.1694 22.1968,43.5027 29.5,44.5C 25.8333,44.8333 22.1667,45.1667 18.5,45.5C 14.4348,45.4888 10.7681,44.8222 7.5,43.5 Z"/></g>
<g><path style="opacity:1" fill="#a9aaab" d="M 36.5,41.5 C 39.5643,41.9811 40.3976,43.3144 39,45.5C 37.5187,44.5291 36.6854,43.1958 36.5,41.5 Z"/></g>
<g><path style="opacity:1" fill="#000000" d="M 7.5,47.5 C 14.8635,47.1694 22.1968,47.5027 29.5,48.5C 25.8333,48.8333 22.1667,49.1667 18.5,49.5C 14.4348,49.4888 10.7681,48.8222 7.5,47.5 Z"/></g>
</svg>
