<?xml version="1.0" encoding="UTF-8"?>
<!DOCTYPE svg PUBLIC "-//W3C//DTD SVG 1.1//EN" "http://www.w3.org/Graphics/SVG/1.1/DTD/svg11.dtd">
<svg xmlns="http://www.w3.org/2000/svg" version="1.1" width="64px" height="64px" style="shape-rendering:geometricPrecision; text-rendering:geometricPrecision; image-rendering:optimizeQuality; fill-rule:evenodd; clip-rule:evenodd" xmlns:xlink="http://www.w3.org/1999/xlink">
<g><path style="opacity:0.882" fill="#73d6ff" d="M 19.5,2.5 C 16.8333,5.83333 13.8333,8.83333 10.5,11.5C 7.83333,12.1667 6.16667,13.8333 5.5,16.5C 3.83333,18.8333 1.83333,20.8333 -0.5,22.5C -0.5,16.5 -0.5,10.5 -0.5,4.5C 5.88241,2.60075 12.5491,1.93408 19.5,2.5 Z"/></g>
<g><path style="opacity:0.967" fill="#71d1fc" d="M 32.5,2.5 C 35.1667,2.5 37.8333,2.5 40.5,2.5C 38.9092,5.43092 36.9092,8.09759 34.5,10.5C 32.4727,10.3379 30.4727,10.5045 28.5,11C 27.5767,13.8595 26.5767,16.6929 25.5,19.5C 22.5,22.1667 19.5,24.8333 16.5,27.5C 6.04707,27.4429 6.04707,26.6096 16.5,25C 14.6183,24.8019 12.9516,24.3019 11.5,23.5C 13.288,23.7852 14.9547,23.4519 16.5,22.5C 16.0431,21.7025 15.3764,21.3691 14.5,21.5C 14.8333,20.8333 15.1667,20.1667 15.5,19.5C 18.1667,18.8333 19.8333,17.1667 20.5,14.5C 24.8333,10.8333 28.8333,6.83333 32.5,2.5 Z"/></g>
<g><path style="opacity:0.931" fill="#72d3ff" d="M 45.5,2.5 C 47.1667,2.5 48.8333,2.5 50.5,2.5C 47.1667,6.16667 43.8333,9.83333 40.5,13.5C 39.8333,13.5 39.1667,13.5 38.5,13.5C 37.5,13.1667 36.8333,12.5 36.5,11.5C 39.8333,8.83333 42.8333,5.83333 45.5,2.5 Z"/></g>
<g><path style="opacity:1" fill="#5ca8ff" d="M 40.5,2.5 C 42.1667,2.5 43.8333,2.5 45.5,2.5C 42.8333,5.83333 39.8333,8.83333 36.5,11.5C 35.8333,11.1667 35.1667,10.8333 34.5,10.5C 36.9092,8.09759 38.9092,5.43092 40.5,2.5 Z"/></g>
<g><path style="opacity:1" fill="#5ca7ff" d="M 50.5,2.5 C 54.1667,2.5 57.8333,2.5 61.5,2.5C 61.6495,3.55198 61.4828,4.55198 61,5.5C 58.6278,7.70319 56.4611,10.0365 54.5,12.5C 50.6023,9.72143 46.9356,10.0548 43.5,13.5C 42.5,13.5 41.5,13.5 40.5,13.5C 43.8333,9.83333 47.1667,6.16667 50.5,2.5 Z"/></g>
<g><path style="opacity:0.899" fill="#71d4ff" d="M 61.5,2.5 C 62.1667,3.16667 62.8333,3.83333 63.5,4.5C 63.5,8.83333 63.5,13.1667 63.5,17.5C 61.5,19.1667 59.5,20.8333 57.5,22.5C 56.4967,19.1503 55.4967,15.817 54.5,12.5C 56.4611,10.0365 58.6278,7.70319 61,5.5C 61.4828,4.55198 61.6495,3.55198 61.5,2.5 Z"/></g>
<g><path style="opacity:1" fill="#5a8df8" d="M 34.5,10.5 C 35.1667,10.8333 35.8333,11.1667 36.5,11.5C 36.8333,12.5 37.5,13.1667 38.5,13.5C 38.5,14.8333 38.5,16.1667 38.5,17.5C 40.1667,17.5 41.8333,17.5 43.5,17.5C 43.5,16.1667 43.5,14.8333 43.5,13.5C 46.9356,10.0548 50.6023,9.72143 54.5,12.5C 55.4967,15.817 56.4967,19.1503 57.5,22.5C 57.5,22.8333 57.5,23.1667 57.5,23.5C 54.6771,24.2166 52.0104,25.2166 49.5,26.5C 48.8559,23.1956 46.8559,21.8622 43.5,22.5C 40.4816,22.3354 37.4816,22.502 34.5,23C 33.695,24.1127 33.0283,25.2794 32.5,26.5C 29.9896,25.2166 27.3229,24.2166 24.5,23.5C 25.2341,22.2921 25.5674,20.9587 25.5,19.5C 26.5767,16.6929 27.5767,13.8595 28.5,11C 30.4727,10.5045 32.4727,10.3379 34.5,10.5 Z"/></g>
<g><path style="opacity:1" fill="#5c9ef1" d="M 19.5,2.5 C 23.8333,2.5 28.1667,2.5 32.5,2.5C 28.8333,6.83333 24.8333,10.8333 20.5,14.5C 19.1851,13.5244 17.8518,12.5244 16.5,11.5C 15.8933,11.6236 15.56,11.9569 15.5,12.5C 19.2901,14.6621 19.2901,16.9954 15.5,19.5C 15.1667,20.1667 14.8333,20.8333 14.5,21.5C 11.1016,21.1796 7.76829,21.513 4.5,22.5C 6.74269,23.4742 9.07603,23.8076 11.5,23.5C 12.9516,24.3019 14.6183,24.8019 16.5,25C 6.04707,26.6096 6.04707,27.4429 16.5,27.5C 16.5,28.1667 16.1667,28.5 15.5,28.5C 11.9521,28.0949 8.61881,28.5949 5.5,30C 7.5,30.3333 9.5,30.6667 11.5,31C 6.65757,30.581 2.65757,32.081 -0.5,35.5C -0.5,31.1667 -0.5,26.8333 -0.5,22.5C 1.83333,20.8333 3.83333,18.8333 5.5,16.5C 10.4944,20.6774 11.161,20.3441 7.5,15.5C 8.52435,14.1482 9.52435,12.8149 10.5,11.5C 13.8333,8.83333 16.8333,5.83333 19.5,2.5 Z"/></g>
<g><path style="opacity:1" fill="#deecff" d="M 15.5,12.5 C 14.8524,15.3228 13.1858,16.8228 10.5,17C 12.0375,15.2927 13.7041,13.7927 15.5,12.5 Z"/></g>
<g><path style="opacity:1" fill="#cbe3ff" d="M 38.5,13.5 C 39.1667,13.5 39.8333,13.5 40.5,13.5C 41.5,13.5 42.5,13.5 43.5,13.5C 43.5,14.8333 43.5,16.1667 43.5,17.5C 41.8333,17.5 40.1667,17.5 38.5,17.5C 38.5,16.1667 38.5,14.8333 38.5,13.5 Z"/></g>
<g><path style="opacity:1" fill="#e3f2ff" d="M 10.5,11.5 C 9.52435,12.8149 8.52435,14.1482 7.5,15.5C 11.161,20.3441 10.4944,20.6774 5.5,16.5C 6.16667,13.8333 7.83333,12.1667 10.5,11.5 Z"/></g>
<g><path style="opacity:1" fill="#e3f2ff" d="M 15.5,12.5 C 15.56,11.9569 15.8933,11.6236 16.5,11.5C 17.8518,12.5244 19.1851,13.5244 20.5,14.5C 19.8333,17.1667 18.1667,18.8333 15.5,19.5C 19.2901,16.9954 19.2901,14.6621 15.5,12.5 Z"/></g>
<g><path style="opacity:1" fill="#5ca5fc" d="M 25.5,19.5 C 25.5674,20.9587 25.2341,22.2921 24.5,23.5C 24.5,24.8333 24.5,26.1667 24.5,27.5C 23.7784,27.0825 23.2784,26.4158 23,25.5C 18.6298,29.7022 14.4632,34.0355 10.5,38.5C 9.83333,38.5 9.16667,38.5 8.5,38.5C 7.83333,38.5 7.16667,38.5 6.5,38.5C 9.5,35.1667 12.5,31.8333 15.5,28.5C 16.1667,28.5 16.5,28.1667 16.5,27.5C 19.5,24.8333 22.5,22.1667 25.5,19.5 Z"/></g>
<g><path style="opacity:1" fill="#5071a7" d="M 14.5,21.5 C 15.3764,21.3691 16.0431,21.7025 16.5,22.5C 14.9547,23.4519 13.288,23.7852 11.5,23.5C 9.07603,23.8076 6.74269,23.4742 4.5,22.5C 7.76829,21.513 11.1016,21.1796 14.5,21.5 Z"/></g>
<g><path style="opacity:1" fill="#5ca6fe" d="M 43.5,22.5 C 38.5,27.8333 33.5,33.1667 28.5,38.5C 24.1667,38.5 19.8333,38.5 15.5,38.5C 18.5,35.1667 21.5,31.8333 24.5,28.5C 28.1781,31.5807 30.8447,30.914 32.5,26.5C 33.0283,25.2794 33.695,24.1127 34.5,23C 37.4816,22.502 40.4816,22.3354 43.5,22.5 Z"/></g>
<g><path style="opacity:1" fill="#74d4fe" d="M 43.5,22.5 C 46.8559,21.8622 48.8559,23.1956 49.5,26.5C 49.5569,27.609 49.8902,28.609 50.5,29.5C 47.8333,32.5 45.1667,35.5 42.5,38.5C 37.8333,38.5 33.1667,38.5 28.5,38.5C 33.5,33.1667 38.5,27.8333 43.5,22.5 Z"/></g>
<g><path style="opacity:1" fill="#493f71" d="M 24.5,23.5 C 27.3229,24.2166 29.9896,25.2166 32.5,26.5C 30.8447,30.914 28.1781,31.5807 24.5,28.5C 24.5,28.1667 24.5,27.8333 24.5,27.5C 24.5,26.1667 24.5,24.8333 24.5,23.5 Z"/></g>
<g><path style="opacity:1" fill="#494071" d="M 57.5,23.5 C 58.1051,29.2398 55.7718,31.2398 50.5,29.5C 49.8902,28.609 49.5569,27.609 49.5,26.5C 52.0104,25.2166 54.6771,24.2166 57.5,23.5 Z"/></g>
<g><path style="opacity:0.897" fill="#74d3fe" d="M 63.5,25.5 C 63.5,29.8333 63.5,34.1667 63.5,38.5C 60.5,38.5 57.5,38.5 54.5,38.5C 52.8333,38.5 51.1667,38.5 49.5,38.5C 53.5593,33.438 58.226,29.1047 63.5,25.5 Z"/></g>
<g><path style="opacity:1" fill="#74d3fe" d="M 24.5,27.5 C 24.5,27.8333 24.5,28.1667 24.5,28.5C 21.5,31.8333 18.5,35.1667 15.5,38.5C 13.8333,38.5 12.1667,38.5 10.5,38.5C 14.4632,34.0355 18.6298,29.7022 23,25.5C 23.2784,26.4158 23.7784,27.0825 24.5,27.5 Z"/></g>
<g><path style="opacity:1" fill="#5ca5fc" d="M 63.5,17.5 C 63.5,20.1667 63.5,22.8333 63.5,25.5C 58.226,29.1047 53.5593,33.438 49.5,38.5C 47.1667,38.5 44.8333,38.5 42.5,38.5C 45.1667,35.5 47.8333,32.5 50.5,29.5C 55.7718,31.2398 58.1051,29.2398 57.5,23.5C 57.5,23.1667 57.5,22.8333 57.5,22.5C 59.5,20.8333 61.5,19.1667 63.5,17.5 Z"/></g>
<g><path style="opacity:0.969" fill="#71cef8" d="M 15.5,28.5 C 12.5,31.8333 9.5,35.1667 6.5,38.5C 4.16667,38.5 1.83333,38.5 -0.5,38.5C -0.5,37.5 -0.5,36.5 -0.5,35.5C 2.65757,32.081 6.65757,30.581 11.5,31C 9.5,30.6667 7.5,30.3333 5.5,30C 8.61881,28.5949 11.9521,28.0949 15.5,28.5 Z"/></g>
<g><path style="opacity:0.897" fill="#bebde6" d="M -0.5,38.5 C 1.83333,38.5 4.16667,38.5 6.5,38.5C 7.16667,38.5 7.83333,38.5 8.5,38.5C 8.40132,41.2372 8.73465,43.9039 9.5,46.5C 6.06131,46.7471 2.72797,46.4137 -0.5,45.5C -0.5,43.1667 -0.5,40.8333 -0.5,38.5 Z"/></g>
<g><path style="opacity:1" fill="#d9d8fc" d="M 8.5,38.5 C 9.16667,38.5 9.83333,38.5 10.5,38.5C 12.1667,38.5 13.8333,38.5 15.5,38.5C 19.8333,38.5 24.1667,38.5 28.5,38.5C 33.1667,38.5 37.8333,38.5 42.5,38.5C 44.8333,38.5 47.1667,38.5 49.5,38.5C 51.1667,38.5 52.8333,38.5 54.5,38.5C 54.5987,41.2372 54.2653,43.9039 53.5,46.5C 50.1667,46.5 46.8333,46.5 43.5,46.5C 35.5,46.5 27.5,46.5 19.5,46.5C 16.1667,46.5 12.8333,46.5 9.5,46.5C 8.73465,43.9039 8.40132,41.2372 8.5,38.5 Z"/></g>
<g><path style="opacity:0.897" fill="#bebde6" d="M 54.5,38.5 C 57.5,38.5 60.5,38.5 63.5,38.5C 63.5,40.8333 63.5,43.1667 63.5,45.5C 60.272,46.4137 56.9387,46.7471 53.5,46.5C 54.2653,43.9039 54.5987,41.2372 54.5,38.5 Z"/></g>
<g><path style="opacity:1" fill="#fefeff" d="M 19.5,40.5 C 27.5277,40.169 35.5277,40.5023 43.5,41.5C 43.2907,42.086 42.9574,42.586 42.5,43C 35.1667,43.6667 27.8333,43.6667 20.5,43C 19.7476,42.3292 19.4142,41.4959 19.5,40.5 Z"/></g>
<g><path style="opacity:1" fill="#aa9acd" d="M 19.5,46.5 C 27.5,46.5 35.5,46.5 43.5,46.5C 43.5,47.5 43.5,48.5 43.5,49.5C 35.5,49.5 27.5,49.5 19.5,49.5C 19.5,48.5 19.5,47.5 19.5,46.5 Z"/></g>
<g><path style="opacity:0.994" fill="#bebde5" d="M 19.5,49.5 C 27.5,49.5 35.5,49.5 43.5,49.5C 43.5,51.1667 43.5,52.8333 43.5,54.5C 35.5,55.8333 27.5,55.8333 19.5,54.5C 19.5,52.8333 19.5,51.1667 19.5,49.5 Z"/></g>
<g><path style="opacity:0.946" fill="#dcdaff" d="M 14.5,54.5 C 14.5,55.5 14.5,56.5 14.5,57.5C 25.8333,57.5 37.1667,57.5 48.5,57.5C 48.5,56.5 48.5,55.5 48.5,54.5C 49.8333,54.5 51.1667,54.5 52.5,54.5C 52.5,56.5 52.5,58.5 52.5,60.5C 38.5,60.5 24.5,60.5 10.5,60.5C 10.5,58.5 10.5,56.5 10.5,54.5C 11.8333,54.5 13.1667,54.5 14.5,54.5 Z"/></g>
<g><path style="opacity:1" fill="#f5f4ff" d="M 14.5,54.5 C 16.1667,54.5 17.8333,54.5 19.5,54.5C 27.5,55.8333 35.5,55.8333 43.5,54.5C 45.1667,54.5 46.8333,54.5 48.5,54.5C 48.5,55.5 48.5,56.5 48.5,57.5C 37.1667,57.5 25.8333,57.5 14.5,57.5C 14.5,56.5 14.5,55.5 14.5,54.5 Z"/></g>
</svg>
