<?xml version="1.0" encoding="UTF-8"?>
<!DOCTYPE svg PUBLIC "-//W3C//DTD SVG 1.1//EN" "http://www.w3.org/Graphics/SVG/1.1/DTD/svg11.dtd">
<svg xmlns="http://www.w3.org/2000/svg" version="1.1" width="64px" height="64px" style="shape-rendering:geometricPrecision; text-rendering:geometricPrecision; image-rendering:optimizeQuality; fill-rule:evenodd; clip-rule:evenodd" xmlns:xlink="http://www.w3.org/1999/xlink">
<g><path style="opacity:0.98" fill="#094f77" d="M 49.5,39.5 C 49.5,38.8333 49.5,38.1667 49.5,37.5C 50.8333,37.5 52.1667,37.5 53.5,37.5C 53.5,28.1667 53.5,18.8333 53.5,9.5C 38.8333,9.5 24.1667,9.5 9.5,9.5C 9.5,18.8333 9.5,28.1667 9.5,37.5C 10.8333,37.5 12.1667,37.5 13.5,37.5C 13.5,38.1667 13.5,38.8333 13.5,39.5C 11.5,39.5 9.5,39.5 7.5,39.5C 7.5,28.8333 7.5,18.1667 7.5,7.5C 23.5,7.5 39.5,7.5 55.5,7.5C 55.5,18.1667 55.5,28.8333 55.5,39.5C 53.5,39.5 51.5,39.5 49.5,39.5 Z"/></g>
<g><path style="opacity:1" fill="#ececeb" d="M 49.5,37.5 C 48.3951,36.3995 47.0618,35.7329 45.5,35.5C 45.0296,34.3065 44.0296,33.6399 42.5,33.5C 40.9704,33.6399 39.9704,34.3065 39.5,35.5C 38.8333,35.5 38.1667,35.5 37.5,35.5C 35.9522,34.2057 33.9522,33.5391 31.5,33.5C 29.0478,33.5391 27.0478,34.2057 25.5,35.5C 24.8333,35.5 24.1667,35.5 23.5,35.5C 23.0296,34.3065 22.0296,33.6399 20.5,33.5C 18.9704,33.6399 17.9704,34.3065 17.5,35.5C 15.9382,35.7329 14.6049,36.3995 13.5,37.5C 12.1667,37.5 10.8333,37.5 9.5,37.5C 9.5,28.1667 9.5,18.8333 9.5,9.5C 24.1667,9.5 38.8333,9.5 53.5,9.5C 53.5,18.8333 53.5,28.1667 53.5,37.5C 52.1667,37.5 50.8333,37.5 49.5,37.5 Z"/></g>
<g><path style="opacity:1" fill="#c80b4f" d="M 35.5,29.5 C 33.5,29.5 31.5,29.5 29.5,29.5C 29.5,24.1667 29.5,18.8333 29.5,13.5C 31.5,13.5 33.5,13.5 35.5,13.5C 35.5,18.8333 35.5,24.1667 35.5,29.5 Z"/></g>
<g><path style="opacity:1" fill="#cc325f" d="M 46.5,13.5 C 50.485,13.6294 51.8183,15.4628 50.5,19C 46.9652,18.6454 45.6318,16.8121 46.5,13.5 Z"/></g>
<g><path style="opacity:1" fill="#f9b403" d="M 27.5,29.5 C 25.5,29.5 23.5,29.5 21.5,29.5C 21.5,26.1667 21.5,22.8333 21.5,19.5C 23.5,19.5 25.5,19.5 27.5,19.5C 27.5,22.8333 27.5,26.1667 27.5,29.5 Z"/></g>
<g><path style="opacity:1" fill="#0f6b93" d="M 42.5,17.5 C 48.532,19.5435 48.8653,22.2102 43.5,25.5C 38.6907,23.2575 38.3574,20.5908 42.5,17.5 Z"/></g>
<g><path style="opacity:1" fill="#05a0c8" d="M 19.5,29.5 C 17.5,29.5 15.5,29.5 13.5,29.5C 13.5,27.5 13.5,25.5 13.5,23.5C 15.5,23.5 17.5,23.5 19.5,23.5C 19.5,25.5 19.5,27.5 19.5,29.5 Z"/></g>
<g><path style="opacity:1" fill="#2d3450" d="M 37.5,24.5 C 40.6741,24.9522 41.0075,25.9522 38.5,27.5C 37.6143,26.675 37.281,25.675 37.5,24.5 Z"/></g>
<g><path style="opacity:1" fill="#0e5179" d="M 13.5,29.5 C 15.5,29.5 17.5,29.5 19.5,29.5C 20.1667,29.5 20.8333,29.5 21.5,29.5C 23.5,29.5 25.5,29.5 27.5,29.5C 28.1667,29.5 28.8333,29.5 29.5,29.5C 31.5,29.5 33.5,29.5 35.5,29.5C 40.8746,29.1718 46.2079,29.5052 51.5,30.5C 38.1667,31.8333 24.8333,31.8333 11.5,30.5C 11.9569,29.7025 12.6236,29.3691 13.5,29.5 Z"/></g>
<g><path style="opacity:1" fill="#091a41" d="M 23.5,35.5 C 21.5,35.5 19.5,35.5 17.5,35.5C 17.9704,34.3065 18.9704,33.6399 20.5,33.5C 22.0296,33.6399 23.0296,34.3065 23.5,35.5 Z"/></g>
<g><path style="opacity:1" fill="#06173d" d="M 37.5,35.5 C 35.9522,36.7943 33.9522,37.4609 31.5,37.5C 29.0478,37.4609 27.0478,36.7943 25.5,35.5C 27.0478,34.2057 29.0478,33.5391 31.5,33.5C 33.9522,33.5391 35.9522,34.2057 37.5,35.5 Z"/></g>
<g><path style="opacity:1" fill="#091a41" d="M 45.5,35.5 C 43.5,35.5 41.5,35.5 39.5,35.5C 39.9704,34.3065 40.9704,33.6399 42.5,33.5C 44.0296,33.6399 45.0296,34.3065 45.5,35.5 Z"/></g>
<g><path style="opacity:0.979" fill="#f5b002" d="M 17.5,35.5 C 19.5,35.5 21.5,35.5 23.5,35.5C 24.1667,35.5 24.8333,35.5 25.5,35.5C 27.0478,36.7943 29.0478,37.4609 31.5,37.5C 33.9522,37.4609 35.9522,36.7943 37.5,35.5C 38.1667,35.5 38.8333,35.5 39.5,35.5C 41.5,35.5 43.5,35.5 45.5,35.5C 47.0618,35.7329 48.3951,36.3995 49.5,37.5C 49.5,38.1667 49.5,38.8333 49.5,39.5C 49.6658,44.1785 49.4992,48.8452 49,53.5C 46.5027,55.4782 43.6693,55.9782 40.5,55C 38.8052,52.7128 36.8052,50.8794 34.5,49.5C 34.853,47.3652 34.0197,46.0319 32,45.5C 29.9264,46.0717 28.7598,47.405 28.5,49.5C 26.1948,50.8794 24.1948,52.7128 22.5,55C 19.3307,55.9782 16.4973,55.4782 14,53.5C 13.5008,48.8452 13.3342,44.1785 13.5,39.5C 13.5,38.8333 13.5,38.1667 13.5,37.5C 14.6049,36.3995 15.9382,35.7329 17.5,35.5 Z"/></g>
<g><path style="opacity:1" fill="#1d1f37" d="M 19.5,39.5 C 24.0205,40.9753 24.3538,42.9753 20.5,45.5C 19.5,44.5 18.5,43.5 17.5,42.5C 18.6119,41.7348 19.2786,40.7348 19.5,39.5 Z"/></g>
<g><path style="opacity:1" fill="#38372e" d="M 43.5,41.5 C 42.8333,41.5 42.1667,41.5 41.5,41.5C 42.1667,38.8333 42.8333,38.8333 43.5,41.5 Z"/></g>
<g><path style="opacity:1" fill="#f2ac00" d="M 41.5,41.5 C 42.1667,41.5 42.8333,41.5 43.5,41.5C 43.5,42.1667 43.5,42.8333 43.5,43.5C 42.8333,43.5 42.1667,43.5 41.5,43.5C 41.5,42.8333 41.5,42.1667 41.5,41.5 Z"/></g>
<g><path style="opacity:1" fill="#38372e" d="M 41.5,41.5 C 41.5,42.1667 41.5,42.8333 41.5,43.5C 38.8333,42.8333 38.8333,42.1667 41.5,41.5 Z"/></g>
<g><path style="opacity:1" fill="#38372e" d="M 43.5,41.5 C 46.1667,42.1667 46.1667,42.8333 43.5,43.5C 43.5,42.8333 43.5,42.1667 43.5,41.5 Z"/></g>
<g><path style="opacity:1" fill="#38372e" d="M 41.5,43.5 C 42.1667,43.5 42.8333,43.5 43.5,43.5C 42.8333,46.1667 42.1667,46.1667 41.5,43.5 Z"/></g>
<g><path style="opacity:0.906" fill="#0e1839" d="M 34.5,49.5 C 34.0296,50.6935 33.0296,51.3601 31.5,51.5C 29.9704,51.3601 28.9704,50.6935 28.5,49.5C 28.7598,47.405 29.9264,46.0717 32,45.5C 34.0197,46.0319 34.853,47.3652 34.5,49.5 Z"/></g>
</svg>
